<?xml version="1.0" standalone="no"?>
<!DOCTYPE svg PUBLIC "-//W3C//DTD SVG 20010904//EN"
 "http://www.w3.org/TR/2001/REC-SVG-20010904/DTD/svg10.dtd">
<svg version="1.0" xmlns="http://www.w3.org/2000/svg"
 width="16.000000pt" height="16.000000pt" viewBox="0 0 16.000000 16.000000"
 preserveAspectRatio="xMidYMid meet">
<metadata>
Created by potrace 1.11, written by Peter Selinger 2001-2013
</metadata>
<g transform="translate(0.000000,16.000000) scale(0.006154,-0.006154)"
fill="#000000" stroke="none">
<path d="M450 2010 l0 -110 -80 0 -80 0 0 -130 0 -130 80 0 80 0 0 -490 0
-490 -170 0 -170 0 0 -125 0 -125 500 0 500 0 0 125 0 125 -170 0 -170 0 0
730 0 730 -160 0 -160 0 0 -110z"/>
<path d="M1450 2010 l0 -110 -85 0 -85 0 0 -130 0 -130 165 0 165 0 0 130 0
130 255 0 255 0 0 -130 0 -130 -85 0 -85 0 0 -120 0 -120 -165 0 -165 0 0
-120 0 -120 -85 0 -85 0 0 -130 0 -130 -85 0 -85 0 0 -245 0 -245 585 0 585 0
0 125 0 125 -335 0 -335 0 0 120 0 120 165 0 165 0 0 130 0 130 80 0 80 0 0
120 0 120 90 0 90 0 0 250 0 250 -90 0 -90 0 0 110 0 110 -410 0 -410 0 0
-110z"/>
</g>
</svg>
